<?xml version="1.0" standalone="no"?>
<!DOCTYPE svg PUBLIC "-//W3C//DTD SVG 20010904//EN"
 "http://www.w3.org/TR/2001/REC-SVG-20010904/DTD/svg10.dtd">
<svg version="1.0" xmlns="http://www.w3.org/2000/svg"
 width="512.000000pt" height="512.000000pt" viewBox="0 0 512.000000 512.000000"
 preserveAspectRatio="xMidYMid meet">
<metadata>
Created by potrace 1.11, written by Peter Selinger 2001-2013
</metadata>
<g transform="translate(0.000000,512.000000) scale(0.100000,-0.100000)"
fill="#000000" stroke="none">
<path d="M2442 3199 c-340 -44 -592 -328 -592 -667 0 -297 179 -527 469 -603
91 -24 276 -29 361 -10 83 20 187 73 263 136 66 55 67 56 67 105 0 28 -2 50
-5 50 -3 0 -35 -29 -71 -64 -117 -114 -250 -165 -396 -153 -170 14 -279 119
-333 317 -12 44 -19 116 -22 221 -4 135 -2 168 15 237 40 158 110 254 227 315
56 29 67 31 165 32 94 0 111 -3 160 -27 30 -15 73 -42 94 -60 50 -41 109 -133
132 -204 12 -40 21 -54 33 -52 14 3 16 29 16 218 0 183 -2 215 -15 217 -9 2
-21 -12 -32 -37 -26 -63 -47 -66 -182 -20 -92 31 -258 65 -286 59 -3 -1 -34
-5 -68 -10z"/>
<path d="M575 3170 c-11 -19 6 -30 46 -30 61 0 104 -22 118 -60 14 -42 16
-1016 1 -1054 -12 -33 -42 -48 -110 -55 -40 -4 -55 -10 -55 -21 0 -13 52 -15
405 -15 357 0 413 2 470 18 116 32 195 92 246 187 27 49 27 209 1 261 -73 148
-223 209 -508 209 l-139 0 2 243 3 242 177 -1 c176 0 177 0 235 -30 47 -24 65
-40 91 -84 18 -30 38 -74 44 -97 8 -32 15 -43 29 -43 19 0 19 8 17 168 l-3
167 -532 3 c-349 1 -534 -1 -538 -8z m658 -659 c45 -17 104 -79 127 -133 31
-72 31 -195 0 -261 -43 -92 -140 -141 -229 -117 -72 19 -76 31 -79 299 l-4
234 79 -6 c44 -3 91 -11 106 -16z"/>
<path d="M3165 3170 c-12 -19 5 -28 65 -32 70 -5 88 -18 100 -74 13 -55 13
-980 0 -1025 -14 -51 -33 -63 -104 -69 -45 -4 -61 -9 -61 -20 0 -13 43 -15
325 -15 282 0 325 2 325 15 0 11 -16 17 -63 21 -72 7 -90 20 -102 75 -5 21
-10 267 -10 547 l0 507 218 -2 217 -3 3 -511 c2 -552 0 -577 -48 -601 -14 -7
-46 -13 -72 -13 -41 0 -48 -3 -48 -20 0 -20 7 -20 320 -20 313 0 320 0 320 20
0 17 -7 20 -45 20 -60 0 -100 22 -114 61 -15 44 -15 1004 0 1048 14 39 54 61
114 61 38 0 45 3 45 20 0 20 -7 20 -689 20 -449 0 -692 -3 -696 -10z"/>
</g>
</svg>
